<svg xmlns="http://www.w3.org/2000/svg" viewBox="0 0 154 30">
  <defs>
    <style>
      .cls-1 {
        fill: #fff;
        opacity: 0;
      }

      .cls-2 {
        fill: #ef3742;
      }

      .cls-3 {
        fill: #1852cc;
      }
    </style>
  </defs>
  <g id="Group_1268" data-name="Group 1268" transform="translate(-462 -15062)">
    <rect id="Rectangle_656" data-name="Rectangle 656" class="cls-1" width="154" height="30" transform="translate(462 15062)"/>
    <g id="Group_1270" data-name="Group 1270">
      <path id="Path_508" data-name="Path 508" class="cls-2" d="M182.719,623.554l-11.591,11.185a2.312,2.312,0,0,0,0,3.7l11.591,11.185c.077.077.077.077.232.077.077,0,.155-.077.155-.231,0-.077-.077-.154-.077-.231a19.435,19.435,0,0,1,0-25.378.283.283,0,0,0,.077-.231c0-.154-.077-.231-.155-.231-.077.077-.155.077-.232.154" transform="translate(402.453 14440.372)"/>
      <path id="Path_509" data-name="Path 509" class="cls-3" d="M196.037,622.4c-4.559,0-6.337,6.4-6.337,14.039s1.777,13.961,6.337,13.961c2.7,0,5.023-1.62,5.023-2.931a.989.989,0,0,0-.309-.771,4.874,4.874,0,0,1-1.777-3.548,3.647,3.647,0,0,1,3.477-3.625c2.318,0,3.632,1.774,3.632,4.165a9.789,9.789,0,0,1-1.932,5.554.269.269,0,0,1-.077.154c0,.154.077.231.155.231s.077,0,.232-.077l11.591-11.185a2.414,2.414,0,0,0,.927-1.851,2.3,2.3,0,0,0-.927-1.851L204.46,623.48a.284.284,0,0,0-.232-.077c-.077,0-.155.077-.155.231a.269.269,0,0,0,.077.154,9.789,9.789,0,0,1,1.932,5.554c0,2.314-1.314,4.165-3.632,4.165a3.647,3.647,0,0,1-3.477-3.625,4.874,4.874,0,0,1,1.777-3.548,1.1,1.1,0,0,0,.309-.771c0-1.543-2.241-3.163-5.023-3.163" transform="translate(398.022 14440.6)"/>
      <path id="Path_510" data-name="Path 510" class="cls-3" d="M30.7,641.036a8.916,8.916,0,0,1-2.4-6.4,9.3,9.3,0,0,1,2.318-6.325A7.577,7.577,0,0,1,36.1,625.84c3.709,0,6.337,2.623,6.337,4.86a2.054,2.054,0,0,1-1.777,2.16,2.1,2.1,0,0,1-1.314-.463,1.912,1.912,0,0,1-.541-1.388,2,2,0,0,1,.618-1.466A3.119,3.119,0,0,0,36.491,628a3.741,3.741,0,0,0-3.091,1.851,8.853,8.853,0,0,0-1.236,4.86,8.574,8.574,0,0,0,1.236,4.782,3.766,3.766,0,0,0,3.168,1.851A3.207,3.207,0,0,0,39.5,639.8a2.127,2.127,0,0,1-.618-1.388,1.912,1.912,0,0,1,.541-1.388,1.82,1.82,0,0,1,1.314-.463,1.929,1.929,0,0,1,1.777,2.083c0,2.237-2.627,4.782-6.337,4.859a8.386,8.386,0,0,1-5.487-2.468m51.7-5.631c.232,0,.309-.077.309-.154v-.463a2.13,2.13,0,0,0-2.241-2.16c-1.7,0-2.4,1.388-2.473,2.777Zm-33.306,1.928c-1.314,0-2.164.617-2.241,1.851a1.886,1.886,0,0,0,2.009,1.928,2.932,2.932,0,0,0,2.086-1.08v-1.7a.761.761,0,0,0-.464-.694,3.09,3.09,0,0,0-1.391-.309m48.3-.694c0,3.24,1.391,4.628,2.859,4.628,1.546,0,2.7-1.388,2.7-4.165a5.668,5.668,0,0,0-.85-3.317,2.241,2.241,0,0,0-2.009-1.157c-1.623,0-2.627,1.543-2.7,4.011M57.2,642.887c-.541-.154-.85-.386-.85-.848,0-.154.077-.309.077-.54l.077-.077h.077a3.5,3.5,0,0,0,.773-.386c.309-.231.386-.617.386-1.543v-4.937c0-.848-.232-1.157-.927-1.157a1.511,1.511,0,0,0-.541.077H56.2l-.077-.077a1.31,1.31,0,0,1-.077-.54c.077-1,1.082-1.466,1.855-1.7a3.412,3.412,0,0,1,.773-.154,1.826,1.826,0,0,1,1.777,1.62,3.327,3.327,0,0,1,2.7-1.774,1.842,1.842,0,0,1,1.932,1.851,1.646,1.646,0,0,1-1.623,1.7,1.562,1.562,0,0,1-1.546-1.234c-.541.154-1.314.926-1.314,3.317v3.008c0,1,.077,1.311.386,1.543a3.679,3.679,0,0,0,1.082.386h.077v.077a1.959,1.959,0,0,1,.155.54c0,.386-.232.694-.773.848a7.285,7.285,0,0,1-2.164.231,12.251,12.251,0,0,1-2.164-.231m9.737,0c-.464-.154-.85-.386-.85-.848a1.959,1.959,0,0,1,.155-.54l.077-.077h0a1.82,1.82,0,0,0,.773-.386c.309-.231.464-.617.464-1.543v-4.937c0-.848-.232-1.157-.85-1.157a1.511,1.511,0,0,0-.541.077h-.077l-.077-.077a1.5,1.5,0,0,1-.077-.54c0-1,1.082-1.466,1.777-1.7a3.412,3.412,0,0,1,.773-.154,1.826,1.826,0,0,1,1.777,1.62,3.327,3.327,0,0,1,2.7-1.774A1.842,1.842,0,0,1,74.9,632.7a1.646,1.646,0,0,1-1.623,1.7,1.426,1.426,0,0,1-1.468-1.234c-.541.154-1.391.926-1.391,3.317v3.008c0,1,.155,1.311.386,1.543a3.048,3.048,0,0,0,1.082.386h.077l.077.077a1.959,1.959,0,0,1,.155.54.968.968,0,0,1-.773.848,7.285,7.285,0,0,1-2.164.231,13.493,13.493,0,0,1-2.318-.231m20.632,0c-.541-.154-.85-.386-.85-.848a1.959,1.959,0,0,1,.155-.54l.077-.077h0a2.663,2.663,0,0,0,.85-.386c.232-.231.386-.617.386-1.543v-6.479l-1.777-.077-.077-.077a1.7,1.7,0,0,1-.077-.617,1.056,1.056,0,0,1,1.082-1.08h.773v-.694a5.734,5.734,0,0,1,.773-3.394,3.924,3.924,0,0,1,3.632-1.774c2.241,0,4.173,1.08,4.173,2.777a1.554,1.554,0,0,1-1.546,1.62,1.6,1.6,0,0,1-1.545-1.543,1.553,1.553,0,0,1,.232-.849A1.637,1.637,0,0,0,92.747,627a1.369,1.369,0,0,0-1.314.617,3.509,3.509,0,0,0-.309,1.7v1.851h3.014l.077.077a1.914,1.914,0,0,1,.077.617,1.113,1.113,0,0,1-1,1.157h-.7a7.093,7.093,0,0,1-1.314-.077v6.479c0,1,.155,1.311.464,1.543.232.231,1,.309,1.236.386h.077v.077a1.1,1.1,0,0,1,.155.463c0,.463-.386.694-.927.848a9.179,9.179,0,0,1-2.4.231,7.16,7.16,0,0,1-2.318-.077m34.31,0c-.464-.154-.85-.386-.85-.848a1.959,1.959,0,0,1,.155-.54l.077-.077h.077a2.385,2.385,0,0,0,.773-.386c.309-.231.386-.617.386-1.543v-4.937c0-.848-.155-1.157-.85-1.157a1.511,1.511,0,0,0-.541.077h-.077V633.4a1.31,1.31,0,0,1-.077-.54c0-1,1.082-1.466,1.777-1.7a3.3,3.3,0,0,1,.85-.154,1.826,1.826,0,0,1,1.777,1.62,3.225,3.225,0,0,1,2.7-1.774,1.842,1.842,0,0,1,1.932,1.851,1.633,1.633,0,0,1-1.546,1.7,1.5,1.5,0,0,1-1.546-1.234c-.541.154-1.314.926-1.391,3.317v3.008c0,1,.155,1.311.464,1.543a3.679,3.679,0,0,0,1.082.386h.077v.077a1.959,1.959,0,0,1,.155.54.827.827,0,0,1-.773.771,7.285,7.285,0,0,1-2.164.231,10.313,10.313,0,0,1-2.473-.154m-21.792.309a6.025,6.025,0,0,1-4.25-1.7,6.216,6.216,0,0,1-1.777-4.474,6.049,6.049,0,0,1,6.182-6.171,6.264,6.264,0,0,1,4.4,1.7,6.166,6.166,0,0,1,1.7,4.474,5.916,5.916,0,0,1-1.777,4.474,6.455,6.455,0,0,1-4.482,1.7M74.9,637.256a6.682,6.682,0,0,1,1.7-4.628,5.764,5.764,0,0,1,4.4-1.774,4.8,4.8,0,0,1,3.632,1.466,4.65,4.65,0,0,1,1.159,3.085,3.23,3.23,0,0,1-.386,1.7v.077H77.988a3.551,3.551,0,0,0,3.864,3.625,3.948,3.948,0,0,0,3.014-1.311l.077-.077.077.077a1.134,1.134,0,0,1,.464,1c0,1.234-1.468,2.854-4.714,2.854a6.016,6.016,0,0,1-5.873-6.094m41.11,5.4a4.019,4.019,0,0,1-.464-1.157,1.31,1.31,0,0,1-.464.463,4.2,4.2,0,0,1-3.014,1.157,3.8,3.8,0,0,1-3.014-1.311c-1.082-1.234-1.082-2.854-1.082-5.168v-2.16c0-.848-.309-1.157-1.082-1.234H106.5l-.077-.077a.977.977,0,0,1-.077-.463c0-1.08,1.391-1.62,2.164-1.774a2.9,2.9,0,0,1,.773-.077,1.919,1.919,0,0,1,1.391.54,2.2,2.2,0,0,1,.386,1.466v3.78a8.077,8.077,0,0,0,.386,3.085,1.764,1.764,0,0,0,1.623,1,2,2,0,0,0,1.855-1,4.92,4.92,0,0,0,.464-2.16v-3.008c-.077-.848-.309-1.157-1.159-1.234h-.386l-.077-.077a1.1,1.1,0,0,1-.155-.463c.077-1.08,1.391-1.62,2.164-1.774a2.635,2.635,0,0,1,.773-.077,1.919,1.919,0,0,1,1.391.54,2.2,2.2,0,0,1,.386,1.466v4.4c0,1.311-.077,2.083-.077,2.314.077.926.309,1.311,1.159,1.311h.309l.077.077a.977.977,0,0,1,.077.463c0,1-1.391,1.466-2.164,1.62a2.389,2.389,0,0,1-.7.077h0a1.052,1.052,0,0,1-1-.54m-72.33-3.24a3.034,3.034,0,0,1,1.391-2.777,5.988,5.988,0,0,1,3.477-1,5.77,5.77,0,0,1,2.4.463v-1.311c0-1.311-.464-2.083-2.009-2.083a5.716,5.716,0,0,0-1.391.231,1.5,1.5,0,0,1,.077.617,1.893,1.893,0,0,1-.386,1.157,1.357,1.357,0,0,1-1.159.463,1.484,1.484,0,0,1-1.468-1.543c0-1.62,1.932-2.7,4.637-2.7,2.086,0,3.4.463,4.1,1.388.618.771.618,2.005.7,3.625v4.32c0,.848.464,1.08,1.468,1.234h.155v.154a1.726,1.726,0,0,1-1.777,1.7h-.232a2.476,2.476,0,0,1-2.164-1.311,5.392,5.392,0,0,1-3.4,1.311c-2.55-.077-4.4-1.7-4.4-3.934" transform="translate(434.7 14440.937)"/>
    </g>
  </g>
</svg>
